<mxfile host="app.diagrams.net" modified="2024-06-28T02:08:46.778Z" agent="Mozilla/5.0 (Windows NT 10.0; Win64; x64) AppleWebKit/537.36 (KHTML, like Gecko) Chrome/126.0.0.0 Safari/537.36" etag="DG1Q0nRj9RYThQT0xsVV" version="24.6.3" type="device">
  <diagram name="Page-1" id="HEQtb_3Oi16vKzZErWZh">
    <mxGraphModel dx="420" dy="226" grid="1" gridSize="10" guides="1" tooltips="1" connect="1" arrows="1" fold="1" page="1" pageScale="1" pageWidth="827" pageHeight="1169" math="0" shadow="0">
      <root>
        <mxCell id="0" />
        <mxCell id="1" parent="0" />
        <mxCell id="f_EQQf9cLV3Z7G79Alkb-4" value="" style="ellipse;whiteSpace=wrap;html=1;aspect=fixed;" vertex="1" parent="1">
          <mxGeometry x="490" y="60" width="140" height="140" as="geometry" />
        </mxCell>
        <mxCell id="f_EQQf9cLV3Z7G79Alkb-10" style="edgeStyle=orthogonalEdgeStyle;rounded=0;orthogonalLoop=1;jettySize=auto;html=1;" edge="1" parent="1">
          <mxGeometry relative="1" as="geometry">
            <mxPoint x="360" y="100" as="sourcePoint" />
            <mxPoint x="490" y="100" as="targetPoint" />
          </mxGeometry>
        </mxCell>
        <mxCell id="f_EQQf9cLV3Z7G79Alkb-3" value="" style="ellipse;whiteSpace=wrap;html=1;aspect=fixed;" vertex="1" parent="1">
          <mxGeometry x="210" y="60" width="140" height="140" as="geometry" />
        </mxCell>
        <mxCell id="f_EQQf9cLV3Z7G79Alkb-1" value="" style="shape=image;verticalLabelPosition=bottom;labelBackgroundColor=default;verticalAlign=top;aspect=fixed;imageAspect=0;image=data:image/png,iVBORw0KGgoAAAANSUhEUgAAAGQAAABkCAYAAABw4pVUAAAACXBIWXMAAAsTAAALEwEAmpwYAAADKUlEQVR4nO2dPWgUQRiGXwOihTaKPygWEcQmkDRaaGMh+NNqq41W/mC6WKTVQlsbBbFQVBRy/jQWip02aRXFwoCiEU2IQqJgzMnABoaPvZvZu7ndN3vvAwspvm929n1u5m7vwh0ghBBCCCGEEJwMAngE4BeApg4UycBl1sgyTMJOAHOSgG4fiHOppDyVDKTaFR6nEKJtCsmE/EwhZNEb0P0tKs5PQrpDQsiQEDIkhAwJIUNCyJAQMiSEDAkhQ0LIkBAyJIQMCSFDQsiQEDIkhAwJIUNCyJAQMiSEDAkhQ0LIkBAyJIQMCSFDQsiQEDIkhAwJIUNCyJAQMiSEDAkhQ0LIkBAyJIQMCSFDQsiQEDIkhAwJIUNCyJAQMiSEDAkhQ0LIkBAyJIQMCam7kBl95yJSfcXf9xRCHkoIUgl5kELIMwlBKiEuy67YZPbAv5KDohL8zBazTDvmtBn8RKC+YepHUT9GzTVOBOpPmvpTqb5E2Zne2KZ2AMAPc/IR1I8Rc40z2bW3YoNZJU86PfE6AL+9gZ4nnuhKZSDngTcc6Hnh1f4BsL6TEx83Jz1XcCm77auuNMy1XgjUnzf1xzo56R1vgCUAOwpOsp+OiUA227MMl+tvF5WxGsCsN8BkRM80QTDNig537SEmvfrZLONoDpoTjkf0TBEE06zo+BiRz7jpcRlHc800D0X0HO5TKVMADkXkM2T6XMZRrALwyWv8ENsogrz3cv2cZR1krzF5JaZJRHHVZLsnpumyadqH6jmQYGtxY1TNfjOnSzFNb82rB4abu5cJhLgxqsZl+dWb05tQwy5zEddRj9XRJFolN8ycdrcrvmiKj6Aeq6NJtEqOmjmNtSt+7RW6HwNbW948+4Y12Y+DLef8qlXhVgD/vMJ75c6zr7jv5ewy35ZXdNYspYXsFl8HkmewYLI+E7pp0YFSM3iXJ2ReIlDVA3E+JMS9VaytCj3NYKmIkNwCkZRg3hJSLhJChoSsNCH+m156UkepT+pf8oTc0steVPWy92aekC0AvkkKypbhVsfmVvvaIIC72ecgug9BTzOYzv4dyC0EIYQQQgiBXvIfQ/z53b47cpQAAAAASUVORK5CYII=;" vertex="1" parent="1">
          <mxGeometry x="520" y="70" width="80" height="80" as="geometry" />
        </mxCell>
        <mxCell id="f_EQQf9cLV3Z7G79Alkb-5" value="Peripheral" style="text;html=1;align=center;verticalAlign=middle;whiteSpace=wrap;rounded=0;fontStyle=1;fontSize=14;" vertex="1" parent="1">
          <mxGeometry x="250" y="150" width="60" height="30" as="geometry" />
        </mxCell>
        <mxCell id="f_EQQf9cLV3Z7G79Alkb-7" value="Central" style="text;html=1;align=center;verticalAlign=middle;whiteSpace=wrap;rounded=0;fontStyle=1;fontSize=14;" vertex="1" parent="1">
          <mxGeometry x="530" y="150" width="60" height="30" as="geometry" />
        </mxCell>
        <mxCell id="f_EQQf9cLV3Z7G79Alkb-8" value="" style="shape=image;verticalLabelPosition=bottom;labelBackgroundColor=default;verticalAlign=top;aspect=fixed;imageAspect=0;image=data:image/webp,UklGRiwiAABXRUJQVlA4TB8iAAAv/8F/ELUKg7aNJDn8Ye83dwgiYgL0U9e5vajSqb9TSgYXy/OhIc89nyL0bJu10cNe4aGllG1vl0rzynZsi8bt+yL0NZXZlFo+RJ9jTPnoj7U0rewYsagyYz9n3xaFggi6VgVR0t+NZ/eht23bG6nRtm2TqroxjLPNOVfOOadP/nz+//800C3thySqq69kMeakBRiqjYfoMGEgbZv41/yvEiAAQJzk/jfWvQGjGd3d3d05BOyu2VxKmXTY3V2ALcyiwxhKd05/o5Hl6wuSJEuSJNkSA65Xv5hE2TUsLSQ0wjv/KFrb3rZtfunk/u/ZA/+gP+j/kLQl1QF4SF0yQ+8T4TaSZNWJ4EX4c3juz2T/+2Jm3Cf0mNlSAOfJYpaqILGRJEnJVryJbpZhhJIajt9vD/XbU6ixaz2f29pFW5q2dvl//7RqS9PWLtrStLWLtjRt7aItTVu7/H+gghrcEYtgmAGR2POrlOY8ZsXNRM85zmES8wIDO4QhCi6gJGV7SnPOq5c4E7HD5kWIhGxQP0YcgmAKMGXvYQhfxMPb0RkDAhocdOL/4YW/uATddJ4BIMHHdaTO/2lqWMYTuCTkffz15JAOUtQj/t2hErFBATuddgc+ZIMA12CYhm0OgwP4vtA9/MEFsBL1Hkoowuihzcnp6xS8TfHIa6kdeH5syxfEOPFPwyTyDF20TofXglc8BCkR7/l9gG7yWvcYJmGDMwYDbGcoBTIB2xXGQt1DAcAUvccuLC724OByBEg66loqB+sgaaFr8t780chJPMMFgpBaw29oJOGFOn6F2Kbpap5HAjawIQqzfQLBzIZNZy14ofaPRjT3HgDOt4CmBhj5R1xL3cD/LKxp8p6+O1QCz9DG33AkWsN34BPwAou2MNs0QQg9MxvcImoNzwEa2RAIWQuX89+7Y+49csM6uLDjaGupGlAAxTRNWG/3fIfmWCRaQ1UCXlTG2FpD052RDXhMx9mw08bWoWE2pmnqrTP2Hq6AY2qQwHBlzx7gRFwN48CYPSM2Hol2DT0zL3Qhjqo1RBvZkCWwgQ+Cie1zXJMzsgNt6z0aomoNT1e1gLiPqzXEmD376uKRaA3Hzbynghre2tj+bIAzrrAhxcIGJGbjmhrCTb2HmaAGOZirWRVuihpuWj2/GcORCJFoTpeZFzxB7RFEE9tODoqa98TCBm9FDVdMvUeGoNawaTWrYruihg6r5x0uSiQmR/YvjzXyAoRUUGuwNbH1Nkpsvh5L/7BHUUOzqfe4p6ihdDWrIldRw7TV80y0EolpepaWkRfKkhrCTWyddInNmbf0D8el3RNjpt6jXlHDg6OstWIqTitqmLd67iVLmnYzMvJeSGpINLF1CiS2e0v/HqXdE5Cp998UNdSs6LnDE2lHOLV67q2RNDl6Rt6LkIJlYvPyJbZ7sX9aQmzBUtm+LSpWK3ru8ETaEU6tnjeS2rWR9yKgcJnYkCuxQaL1T02ALVwqm9Mi3dZ6tSt67vBE2hFOrZ43kkIler5YVqRMbFuJLVKFs55ltkipbF6LdFvr1R5lrfURLiUSp1bPG0XBEj1fLClWJratxAaJ0j8jS2yxUtl+lm5rvdpVKiNKJHrUeTjQI3p2WJLamYltK7FBIvTPyiJbuAz9+91xW3udRLGiRKJHnYeNEdHzXvqSpl6yiQ25cbaFMrA9SrsnIFPv3+3b2pvkiRVpR+hR52FiRfT8QwaSfioT2zbKtlgGtkdp9wRk6v2n67ZWmDPVK5J2hN0p6jwsihh5rxQdVMrHYUtlYHuUdk9Apt7fjrU3Yc7cdBVJO8Ip6jwMyhh5ryRNZya2bYRtuQxsj9LuCcjS+yLW3oQ5c3me9AFvGR0lRt699LVHVZt0YyGBMrB55dLu6UCG3pex9iZMund4Lu0Ip6jzUNFi5HVY2qOqjYltG2QLlYHtTto9b/XeK7H2Jky6d3gs7QinqPPQUGPkvdAeVW1MbNsQW7AMbHfS7nkr916LtTdh0r3DE2lH6FHnoaDHxqsm6HljYtsG2MJlYLuTds9btfdqrL0Ja2apmHoi7Qg96jxKjJh49QQ9b0xs22W2SBnY7qTd81bsvZ5yb2oS7h6cSDtCjzoPF+3Bwmsk6HljYtsuscXKwPYo7Z6AtN4bsfYmTJnDUiLRo87DRdvNyMh7EdVimdiQK7FdW/q3UFG2xYqxWbH2JsyYhVIi0aPODy6mvYyNvBcxLZWJzcuX2O4N/budGNtSqWyfrttaYcIslhKJHnX+5riYroy8FxEtl4mtUyCx3ev9KxJhWy6V7VNBTb4slRKJHnX+5ng4KCPvRViBMrGdS2z3cv/KhNkCpbJ9luiZ/e8dfkfvHc7+9w7f+z93+GO0HY6zQhGPTaLFLZf0XFcEeb5/6croZNzePnwJX5qLpH1fREZh3J+xtOmm5t03seGDxAbZFwMbvkq7J5a/fDH0zxmTbmt9PQF/2I+tiEcIHEFdRQIRoV6ZV++MS6+4f0hxcf54X7zzvaTnqa4SQROZ3yDVIkaOC2D8xEmYrgYBg/XgQq5FjCMXdJyCMvgCARxMahEjygVLqIDqoAtoZECoxYksF6ygFJThnjuEN7q1OBHmAkFnx7tHD/PcIeh4oMVppHnxPu0xHOK5Q9hjWIvTaPPiLCCxXC2oAMARSLU4jTkvqARqWGcPgMBlLTojzwu4IA2pgMZTLTqjzwt4UB1OgYgGLToj0AsGoDGUAgpvteiMQi/oh+IwCiAeatEZiV7QCnyBWgHvZlGqRWc0ekH1u0MN4NwhwgFr0RmPXjrpwzd3CE0IteiMSC+OdM5z6OYOgUSbFp1R6cUZ71DKvFcEup3Bfi06I9MLzgybwMS8Fp2R6QVyOA6ZKh7Y2ubIfZ1e8QbWd6J8x0aEywcowgwxyMVXR2KL4gnAARPsTHLGO9lP09EiRorLy1Q6HF+3aScCe7hU8cwgh9+3/S9H0CJGjMt/PBqxGDB8IAIPwGAJpg+6vKtvUtQiRo4LMMiHTL8PQeRQqeKmLKz0pWgRI8gFXvgj34aiZajmDkH6qgqz8zy1iFHkAhb65fs4mA/U3CE2qcLinKMWMZJcoIZRdSfHqYGaO8QnUcezgrWI0eQCEyyKa4nJfxqmJDagY4MqYPG/rStHixNRLmCrv4if8xmk2QMkiy1yOv7lsVqcmHLxHomPoDrHBmn0BFc1OfAOFy1OVLk8S9tZ0p5Aeg2DNHnkjGivEK96RMQJBPhjH86DCx6GMHuLKfSjBQ+8gl7qHqN0nruKtSeQjngWfoD0lKa4Qe7kNhbkmCAPDZBEo+OM4TqigU7j+VkaEGsPoOE1QHOH8/w1+brHgX6M1tmHDvVzCBDiHCyTcOC55hnbCuoLzvH27dI+PnZyxoD2Y3QyHIHpk8r4AKcEHEjQPKNsgOYOvQrt4+Oc2+rXvzy2w3HmzDMFeAoNMwfokEue8WqA5g69F1J7ndWnIVe+djj5vk1mtYZlHHkRwsqB35JndA/Q3CG4UnvRter17lCdA45YVuzyfX6WlpHjTvKMqYJ6haOPNqm9qF7x2h/Nq54SaZqcP2c2DhRKnrE4PKrokdoridx5mbLXknKe8BhsEweyJM+QAxwcVYxL7RWTOnv0nL6UmtoDdlo4wNE8Az84qpiQ2ivInOepOr1p1RpgbDJwYK/mGcRh0UJJ7d0S501037fUag0yxOgcp5pnEAdFiyW1d0v8DXmv0qs1rMBc5jjVPH8eEi2V1MotbW46GTnUGvo/qxynmucecXjmDq+lVm5pM+fuSLKoNdxUOU41z/ujDc/c4bXUyi1r/uFxPl4mtYYQkaOzX/P8m+jDM3d4LbVSkDSXnfRsahgQ37LKseT5pyqnV+W0/FpqpSBpnqfhLGVTmzpZGsex4vmgyumVPCWDZDzCbwi1tiX2IsiZy66SjJocgRanY83zDmtHBzrh62yXwR7Dr1+/G7yAnloAsQP81louGcmZ1yk7ixk1TZ00ie1Y40juBSJ04ii0Egp4PG0ZFauUuezKNq0HulB9hxLcwUesWNYN00AqbKeacnjBKoqASaXvqCtG93uTMufo19fjGgfAWrQ3D9uL8WoM64YQhe00q4yF1qc0E/0nPpSjf/YmY1aXi7we+Ic0YIP+5rycb/K64b7CdlpQDnw/f39UpVcCJgwgLQfzKhmzoEpdD0zCLvpO5XBbjidwAttpQTmYvDtJ5g5xtSTM54yp6BHXA+NQEzyjTF03BAhsHeh1MDmw45Rg7hAIQCVh7nMZAxV1N4G94hkgasV1w8kI20IBvQ6mhgcJ5g5hUZL+kV7CVCSJ64HdmmdQxSM60Sz460g0LAET75+tgOCiUi6rhKk4rq0HhoASPeOAtm4fAYT8LRUSrcHarAVxRaVcdglT8URbD2xSPQMNgbZuUIv761A0hJq1wL2olMs0YSq6pPU4A132jBvausEn7q9D0RBj1gIm4JIwpZ0wFX+l9cBn3TNitXXDGmHuEIoGR13KQltJmBJMmAqRtB64oHuGibZu2CbMHUJxBqpdFbtKwhQkDJDaeiBH99yhaOvWSRPmDpFoqEugCgUMFIS55UsFXlsPHNQ9/9MwDiytWydHmDtEoiEhydyhy9kRZcIkoXcIEHJpPXDacKiMtm6dA8LcIRJoBZBm7rCX6ojzYLLQO9QOijvXPe9w1tatb6swdwgEhNBLNXc45+NMZ8FkoXeIKWk9MLTgOd1EUS9RmDsEAu5Sr5xHOQuPbExkEAu9QzRq67HDRvbs+6Stm2MrzB3CgDboJT17CADssBbpOLV0eYVdhZ8/n10uXgYvcmGhd+hd15a/q1T+kVgh1X7eEJCE3QkDyPARbACFHz0l4usd0vAdR87q03RFz7ivxQRTqeYOT7E1cnV29O24ujo5M3hBPFxBK//kMREWeofzAsVXv/dI8wz3rbZLoDrV3KGowzN4bics9A7/ZCRnVdz8cVjx7GiCL36QACfV3KGowzN38JWG3iG44sd+yLAu7s+nDp56jwDzVHOHF5yzwjnyVxp6h1/lWz8UAhHx53LGtOoPowBSzR1eDs/cwZ3Q0DuEKmTynT96EB/y9zQtXIRUjieO1VRzh5fDM3fw1fX59jljasVbwy8G8RO5sDuvN38z/NN0exu9Z/hn+AUijGqCucPbOTxzB0VcRylImYpY47MAZ8XhO7D6fCAwopBq7vCCc344+v+7jlKQMhUgujI9HgpNnSeaO7wcHIpYR7SlTK1IzSl0AJA4us9Z1KHhOq6jFORMBfIsnxp8NY7uc740zdxBuALOJtxbG88dxLVcwgJU18ZzBzsUZyiPGlLXyHMHdzg7oizCpbo+njt4ednZnUPoALauyHMHs3TBsfTCIJgHHKvn3MEVrgrgNrUwA90FjpV47mCaLgBQlFYYhsEix1CcO5jHy3W6cwcTdQFnm1D3UDNxHH3O+6Nl0VDMHWbqgggIkwm3QLBxHH3OPWJ6DcjcYaou0EZrGmEZGyIc+fUOc3UBiK1YSCDUghXjaILeIdbjuL1bjtQo/EJ4nCO/3mG+Lj+k71Vh1SDwsBYIgSO/3mHGLqCeoQGwFB3M4iLcACgcCfYOk3aBDrbgPqbD0YEIDciDJ1Ci5wR7h4m7fILTRxxBvlfxS1dhJ6vDQRB0gNA9r8K5Q3ZcVuHcITsuwzF36Bh1ZXp3vDpfp9OJjtj13/t7wAXidHOH5LgMxtwhHPBRe1h6By53Wpy4cUk5d4g5zN7eOrOH1091BVycEa/Ju4JQoBIKANIgz6J033eYG5eUc4c5vGAI7HR/jTOZMKd77jBhLh2Dwwt3gU0kbM+l6XqHhLl0oNcBXgBMMncIRSzkwpyud0iQC/TcQeQkmTvE6WyY0/UOCXJBnjvYIP6QYu7QGS4JE7e0OBHmcgR6HbSGswJbHHM3k5LUUK/FiTCXIxIN/P2B8e7BTFBRKUebFifCXI5ItPYki3j1pJdUVMrxU4sTYS5HKKaZkHjzaF5AUSlHqxYnwlxEQzH12PHi2S6DolLuq9PiRJhLh2Ka85qgd4i+kjC9m1qcCHMRDYUDP03L3puAifxsmNP1Dglz6UhMTmeKuUNQIMiFOV3vkDCXjsQETpK5Q6Tkwpyud0iYS0cCI0CnmTvE8UyY0/UOCXMRDQQk8FLYNHTshjQLJrO9QxwgwyartAVjvIA8g5jtHcIAIYKsMpan0tnpVXnPvDpfHT7ErofeAy7yYrZ3CIIjRCGopZ87yHbvENdw8ft37/Lh9aWugEtXYWf/jP/TkMNx7iA3LjnOHaTGJcm5g8y4ZDl3kBmXLOcOEuOS5txBXlzynDtIi0uicwdZccl07iApLqnOHaTEJdm5g4y4ZDt3kA+XfOcO0uGS8NxBMlxSnjvIhEvWcwdZcPnlwtzBQ/7cYbZ7h5c7oS17h5c7YPa/d/jdpXcIJLyxBwX2nzrSWHJpy94haCjK8aZz2O4d4hkeBS/vsffk48eb7XZr8IJ7KMcWKCcVQjDbcojt3mEGL5DjqWMoskno2AxZHrHdO8zixZH07Uo1dwhfSDOJ7d5hJi+dY2nmDoHBWC5MtnuHmbw4MNhJ5g5xIBsm273DXF4AgSywCRbwoyRMCTPbO8zmBbkJBLWSdC9dFnuHSDT021XhWdb7DmG2d5jPC1hmVcQVlXLZs9g7hKLB26yKwKJSLksWe4dQNMSbVWFWVMqlx2LvEIoGH7MqQMyUhClpFnuHUDToJZg7xPm2zn7f4YbBFHOHjrYjWme/73DDySRzh53jBWFu7fHcYcyBLrAp6P/1GK+mHMytPZ47jE2JZg/+JAKuFYO5Ncdzh1GRbvQESRjKgcls7xAGwMgFkHDyCCiE4CIaMKL9JCsBl1dme4cwPwQA7NbLcwfxPdXPg1QsvMdNHIL+/744d/C9/+cOtv/cwdn/5w7P/j93GBhEe7e8dmdSe1MTARf5s907hAaonz51qK9Sep3Shw8ff/2nrIDLn4yUWgCwDuPa57qjLmz3DpN7+eZ8xSEwEwpo3GxZxHbvMIcXLCMPqFQCAq8yie3eYR4v+AxGGlWcyCW2e4eZvKATuCRzh2BBvM6eO4jLSeYOcWlaZ88dfIBNgrnD/YEOvyRM3FtD3ncI7ghsccwd1iWp4dMa8r5DMP8EKt49mAkrKuVoX0fed8hOdvHqSY+97r7vkJmIePNozqeolKN5LM4dQjHNSogXz56mBbgkTN+7sTh3CMW0k9sEvUN0loTpXRuLc4dQOLKXKdt7EzDByYbJbO8Qicn3KcXcIVAYyoXJbO8QiQnJSeYO4faYCZPZ3iES+AYwzdwhNkCWB5PZ3iEQWISpwubbOgIAZcFktneIAxbgZ5W2QMFJQBnEbO8QBvBgYpWxXoSY59XZ3Tmm/bgpARe5MNs7xMCBnTZsAGK9PHew+/7YXAGX3saZ4Kc0//fFuYPv/T93sEXnDs7+P3d4buG5w30krMdz9GI59Rc4sd07fMJG+13GCLiACcDA5vyvF2IvoBxf3sh27zC5F0jxEwUfEs4e/GZUvGiF6H5ri7mDEKP8Yyr91XDgFqP7rTXmDqIDaokmj1BRju635pg7iO43YySRYwhpOZj3z+0xd9C7n2TuEDdKwnxukLmDcx4Cm71NICEoCXNfaJC5g97jBHOHsCwq5ftBg8wdxBIw8d4hQsr6f7mmPeYOtgabeO8QcUWlXHbNMXewtYYwe2+OqaNFpVwmrTF3sB0UosMsYAIuCVPajTF3cMEBHMIsFa0lYUqQxbmDUEACSpyK7dkwme0dItHwPoHq919zYTLbO0SiIU6XumCLlUyYzPYOkfgdAFnGQrwjyoPJbO8QCAihm2rucM7TmVhTv+8wILikmzv8o5G7MjG8jn7fYTSClfbcQZgjGQeQFri6MjoZt7cPXw4vgxc5Mds7BHmr54gBsF6eO9jb2GMjPnY99JI+fTJ4QSQcQPrfF+cOvvf/3MH/hX7u4Pzfc4d/g7F3CAbMYPuLYzvnuMPp4eGLY/tL6DJ4cf6smXOHsMVFzKT/+ja2e4dYq33BWcAFkXACOe3cIWi4D7hlENu9w/ReIPXVf3r36HRzhzDEQMsitnuHWbx4rbsMNTYFHXQMZhLbvcM8XiCAaxpVvM4ltnuHmbz8Cr0kgnc2TLZ7h7m8oBlAAlXUloQpHrO9w2xe7hMIBKyWhClVFnuHSDTU2VXhUFTKZcRi7xCJBgkoYep5USmXDbO9w3xe4BTvHSKqqJTLpkH+7jAN0fHeIRyLSvnPBvm7wzSExnuHfSRHVBKm1Brk9w5psLH3JmB6b0vCFNMgv3cIluYwE3QPZiJLwhQ0yO8dgkdJRk983IIwt/b4vUMAz3NPMnnkqWAiEyazvcOC1Lx7iQbPYIHxPJjM9g4LktO9HyPV3CGYJ1kwme0dliOn81naEpuKDk/cw3x6Mds7LEUQe+V/NHLacwehAG24wu90Jujwgl/4MnjZHZntHRYhSPADeXvprZnnDsJc+3FTAi5gAnjv/7mDR+HcwXfX3TEuaHEizAUc7cnij1GG59xBObjujnFLixNhLl3Zkhz5fz1meM4dRJt0d4xqLU6EuXQVS59XcBYLYsM5InClu2N0aXEizMV7Ln1ayZkqiA1HHy+ku2OsAqnFiS8XX7f0WUVf7/Cooly7O3actDjR5fIqpiOXPqPrezM8qtiu3R13HdXiRJdLL0mbKUDZ8KjO+GvjD1stTnS54Lk2UoJtw6Ob52mqb3NYixNZLp7yozZRBK+C2ICOyBnRhp+8F1qcyHLBaU2QgFAQG9ARede1j4+AYa/FiSoXqGFJmyfE15LYgI4IKeLoI9oBanFiygUPxHFS5JfEBnREUN2KLUK2FieiXMBWp4nhURIvkj4+iS2CDH5anGhygQkWxbXEJBCDpIrN6tw7FmGrRYwkF6hhtIlriVPDpAoSVjS1hlm4ahGjyAUs9MtfSgLzYVKtuCWqNSz/qkWMIBd4gS8LLUOlCjPDaeW49DpFLWLkuACNvGNZDVFDpVrxXFabHH7ftr8ZXosYMS5/NgDR35su8AAMlirsdR1czhjSoK5FjBSXlyljB7qaQQ1JhfGCHRse2r4KFnK04iTiYQnGX+Swl8KrlHaznBXXyfN9hriZhHaAhfGCHZvHdOa1cwpGppcHOJYWd7SPpM5hLToj0wvOFrfboV1I/+Fxvg4tOqPSCyZALe4DINzn0T16EGrRGZFeIIXb0OmmIlaLzoj0grThU60o06IzGr2g+m4AVQHioRadkegFrcAPoWoFCu+06IxCL9+hVKJWQGoFCU1adEagFwxCs0idEakVOLzUojP6vID3rUydIakVCFzWojPyvIALcqE6Y1Lrnw3oynCkWpzGnBdUAqWpGC+YW9rJ1RnW4jTavGABiXVwdXn5AvNei9NI84JP0ClayFuCN7q1OI0wLxBg691Aq1agkQGhFqeR5QX/UApKHWQtfxdjcDClxWlEecESKqBaB1qBC1hswmfAWsTGkRd8x37Q6hBL+Z3M6Mrx2hyZFrGR42WLLpyGuZwD3N4h9DbfptiLRjm4mNYiNlK8QIBGnAcbyrUeDS0+YF1Agj3CwMZWHAq8aQ3fZ6nlu2f0l9vAXW25UGh8YxzO79t/NLHhg8QG2RcDm9cgRcdZNr1JD4xJQnfIX9+O3tpZMfM8uujWHNTQO6zF5UR6xckp6oxE7dUKPesXb/k+0jcmNuRKbJBY+ueVSzuHA5l6j2bpr1GjrfmR8XJoJmr0qPNG26yhZ+LVozpvTGzbZbZIGdjupN3zVuy9nhgbao6yloo5KCUSPeq80T5WO3oWXiOq88bEtl1ii5WBDaXS7glI672RGBtqVrIOS4lEjzpvtFu13YwMvFZU542JDbkS27WlfwsVZVusGJuVGBtqVrEWSolEjzr31mh36nsZ67xFXBf6jYnNy9d+y8YM/budGNtSqWzfpNta1KxgLZYSiR517iVrv1C7knm1ON7VGxNbp0Biu9f7VyTCtlwq27eAgrV6tVRKJHrUuZes6KCMvE86Skxs5xLbvdy/MmG2QKls35YVrqOstU6WS4lEjzr3kiVNuxkZeZ9UtJjYziW2e7V/SoJsoVLZvkm3tag5yjpXSaCUSPSo84Pvq3QPRt6LkIJlYvsosd2L/dOi7U2NyvZNuq0V1sy5RkKlRKJHnYfvC7fQM/JeBBQuExtyJTZItP6pUfamR2VzWqTb2r2tmXOFBEuJRI86a1GdoWfkvVhWpExsW4ktUoWznnJvRlQ2r0W6rd3bmlnrI1xKJHrQWY3qDD0j78WSYmVi20pskCj9M1LszYrK9rN0W7u3mWJEiUSPOetRnaFn5HVY2qOqMxPbVmKDROifldt702Po38/Cbe11EsWKEokedR42RkTPe+lLmnrJJjbkxtkWysD25rp6AjL1/kv8tvYmeWJF2hF61HmYWBE9/5CBpJ/KxLaNsi2Wge3NdfUEZOr9N+m2Vpgz1SuSdoTdKeo8LIoYea8UHZSJbRtjWyoD25vr6gnI1PvFirEJc+amq0jaEU5R52FQxsh7JWk6M7FtI2zLZWB7c109AVl6XyTGJsyZy3NpRzhFnYeOEiPvXvrao6qNxlYmzBYoA9vmunreGnpfJsYmrJmlYg5KicQp6jyc/0o5I6/D0h5VbUxs2yBbqAxsm+vqeav3XkmMTVgzS8VcHks7winqPDTUGHkvtEdVGxPbNsQWLAPb5rp63sq91xJjE5rM/vcOv6P3Dmf/e4ez/73DrbQjYNrqeSZa0vQsLSMvlCU1hJvYOumpH4fhuLR7YszUe9QraniwmlWxTdoR0G71vMNZkiP7l8caeQFCKm30sDGx9TZIbL5uS/+wW9o90WTqPe4qaig5ylorpsJV2hFww+p5P4YjVu7yfb/MvOApgghEE9uTHCaFzXtiYYOXtHvisqn3SJdua7FxRc8dAsSMsiMg2uwZ75S7fO+4mRcFykaP10Y2jChsfWstbEAAUl4+CDP13jFVBLnHXNFzhxXHBWEMGLNnxAiRcMSOrpkXOhALr3REGdmQKbA5/B7BxPZVEIaBsvXeaxDua/DkZkXPHVaQ8Te+I2Ct3TOA38Vv81CRgPc4LjRY2YDHVJwN221soEIYf/kgydj7OXcHjr8hnN1MjrTWmqkVfpDGIoHbKTxD+z4WCXz/kID3DyJ57TFBAF0zG1whirHhGUAjGwIgjQk3zb338lqsOjtXt2rtbHDE4UjgFbBJPMMl8nEev6CehPcplu9XWIDgnIANiVgNs6EOBDMbNkISFqqBtv9MYTgXLsBewSrXzeWcd+i7k0OMY0Ak8gyd0JM7B8Y9EBPx7o/2aRsoNIGVhA1O6A99yQmKgEzANuPnjAYEEXIBpug9tmMh9CrorVnturz88+GxB+2ADwt8XIBOOs8AEIsPkBxGwlnyHjtOCXkv8AhLC8+PjxF7l4gNCg9oAXzI5vz1rjkGadj+bMTOQefbQoowg3PQTtR7MHAawwuFHuS8iT4Iqn7rUIEbYhEEE4CJPXfI89xnxc1EPcnhj0ZMzAsMrBGGKDiDnJTNU57nOSthJvwJ638aJuWP3XrWEAiTKWXvoQ8fxMMT2vVmeDSyvXwXZNGWpq1dtKVpaxdtadraRVuatnb5f/+0akvT1i7a0rS1i7Y0be2iLU1bu2jL0NQuCwA=;" vertex="1" parent="1">
          <mxGeometry x="242.5" y="75" width="75" height="75" as="geometry" />
        </mxCell>
        <mxCell id="f_EQQf9cLV3Z7G79Alkb-12" style="edgeStyle=orthogonalEdgeStyle;rounded=0;orthogonalLoop=1;jettySize=auto;html=1;" edge="1" parent="1">
          <mxGeometry relative="1" as="geometry">
            <mxPoint x="490" y="164.8" as="sourcePoint" />
            <mxPoint x="360" y="164.8" as="targetPoint" />
          </mxGeometry>
        </mxCell>
        <mxCell id="f_EQQf9cLV3Z7G79Alkb-13" value="Connection" style="text;html=1;align=center;verticalAlign=middle;whiteSpace=wrap;rounded=0;fontStyle=1;fontSize=12;" vertex="1" parent="1">
          <mxGeometry x="390" y="140" width="60" height="30" as="geometry" />
        </mxCell>
        <mxCell id="f_EQQf9cLV3Z7G79Alkb-14" value="Data advertising" style="text;html=1;align=center;verticalAlign=middle;whiteSpace=wrap;rounded=0;fontStyle=1;fontSize=12;" vertex="1" parent="1">
          <mxGeometry x="390" y="70" width="60" height="30" as="geometry" />
        </mxCell>
      </root>
    </mxGraphModel>
  </diagram>
</mxfile>
